HIERARCHY
ROOT SpineBase
{
  OFFSET 0.000000 0.000000 0.000000
  CHANNELS 6 Xposition Yposition Zposition Zrotation Xrotation Yrotation
  JOINT SpineMid
  {
    OFFSET 0.000000 31.382972 0.000000
    CHANNELS 3 Zrotation Xrotation Yrotation
    JOINT SpineShoulder
    {
      OFFSET -0.099360 23.361664 -0.825249
      CHANNELS 3 Zrotation Xrotation Yrotation
      JOINT Neck
      {
        OFFSET -0.049930 7.754975 -0.623871
        CHANNELS 3 Zrotation Xrotation Yrotation
        JOINT Head
        {
          OFFSET -6.494460 12.111705 2.809168
          CHANNELS 3 Zrotation Xrotation Yrotation
          End Site
          {
            OFFSET 0 0 0
          }
        }
      }
      JOINT ShoulderLeft
      {
        OFFSET -10.987029 -2.245372 12.290579
        CHANNELS 3 Zrotation Xrotation Yrotation
        JOINT ElbowLeft
        {
          OFFSET -1.656257 -27.987150 3.982444
          CHANNELS 3 Zrotation Xrotation Yrotation
          JOINT WristLeft
          {
            OFFSET -1.221995 -28.067632 3.823087
            CHANNELS 3 Zrotation Xrotation Yrotation
            JOINT HandLeft
            {
              OFFSET -0.902574 -8.077983 0.274442
              CHANNELS 3 Zrotation Xrotation Yrotation
              JOINT HandTipLeft
              {
                OFFSET -0.572104 0.120382 -1.044612
                CHANNELS 3 Zrotation Xrotation Yrotation
                End Site
                {
                  OFFSET 0 0 0
                }
              }
              JOINT ThumbLeft
              {
                OFFSET -0.122020 0.553005 -2.299696
                CHANNELS 3 Zrotation Xrotation Yrotation
                End Site
                {
                  OFFSET 0 0 0
                }
              }
            }
          }
        }
      }
      JOINT ShoulderRight
      {
        OFFSET 10.390232 -2.218795 -11.706606
        CHANNELS 3 Zrotation Xrotation Yrotation
        JOINT ElbowRight
        {
          OFFSET 7.606416 -26.231497 -7.160343
          CHANNELS 3 Zrotation Xrotation Yrotation
          JOINT WristRight
          {
            OFFSET -0.319536 -20.485137 -5.983141
            CHANNELS 3 Zrotation Xrotation Yrotation
            JOINT HandRight
            {
              OFFSET -1.575058 -6.727081 0.202967
              CHANNELS 3 Zrotation Xrotation Yrotation
              JOINT HandTipRight
              {
                OFFSET -2.021744 -7.033854 -0.892075
                CHANNELS 3 Zrotation Xrotation Yrotation
                End Site
                {
                  OFFSET 0 0 0
                }
              }
              JOINT ThumbRight
              {
                OFFSET -1.787624 -1.758921 -0.301155
                CHANNELS 3 Zrotation Xrotation Yrotation
                End Site
                {
                  OFFSET 0 0 0
                }
              }
            }
          }
        }
      }
    }
  }
  JOINT HipLeft
  {
    OFFSET -4.475363 0.531789 0.649215
    CHANNELS 3 Zrotation Xrotation Yrotation
    JOINT KneeLeft
    {
      OFFSET 1.779735 -38.456902 2.660054
      CHANNELS 3 Zrotation Xrotation Yrotation
      JOINT AnkleLeft
      {
        OFFSET 5.526675 -35.981431 3.737310
        CHANNELS 3 Zrotation Xrotation Yrotation
        JOINT FootLeft
        {
          OFFSET -5.186192 -5.023306 -8.210793
          CHANNELS 3 Zrotation Xrotation Yrotation
          End Site
          {
            OFFSET 0 0 0
          }
        }
      }
    }
  }
  JOINT HipRight
  {
    OFFSET 4.173811 1.821614 -7.780784
    CHANNELS 3 Zrotation Xrotation Yrotation
    JOINT KneeRight
    {
      OFFSET 8.485667 -33.157944 -3.101501
      CHANNELS 3 Zrotation Xrotation Yrotation
      JOINT AnkleRight
      {
        OFFSET 7.270302 -38.264561 7.040903
        CHANNELS 3 Zrotation Xrotation Yrotation
        JOINT FootRight
        {
          OFFSET -6.890614 -3.532037 -10.209979
          CHANNELS 3 Zrotation Xrotation Yrotation
          End Site
          {
            OFFSET 0 0 0
          }
        }
      }
    }
  }
}
MOTION
Frames: 10
Frame Time: 0.033333
-15.851608 81.501970 368.390447 12.390207 -12.601707 20.435765 -0.199804 -0.632829 -18.618780 -1.220946 0.102355 0.553950 0.880277 -0.111817 -10.588274 0.000000 0.000000 0.000000 -3.342843 13.524373 -0.233979 -99.077431 -5.814838 -21.497424 5.724843 -7.738728 5.254648 133.039555 -8.569028 65.459726 0.000000 0.000000 0.000000 0.000000 0.000000 0.000000 -22.576955 15.172399 7.142153 -71.548593 -1.281901 21.758209 29.894145 33.265729 -16.431845 -11.939902 -39.485488 -11.060912 0.000000 0.000000 0.000000 0.000000 0.000000 0.000000 -8.948046 25.373524 -17.398698 3.897403 -16.580887 -1.099164 11.642656 -7.035818 -2.947110 0.000000 0.000000 0.000000 -7.463129 34.681030 -12.911416 -6.836059 -8.995065 -7.702385 26.009976 -21.889028 -16.632507 0.000000 0.000000 0.000000
-16.145130 80.569591 366.769008 11.484722 -12.664492 14.020325 -0.519338 -0.105263 -12.338855 -0.699577 -0.088203 0.486787 1.369982 -1.394667 -10.966333 0.000000 0.000000 0.000000 -3.222972 16.136337 -0.531645 -95.653376 -6.439686 -23.771471 5.730342 -7.804310 5.039862 129.765611 -7.676129 65.623787 0.000000 0.000000 0.000000 0.000000 0.000000 0.000000 -21.305433 13.737310 6.378556 -77.400473 1.062947 27.846337 34.919525 29.288943 -17.578984 -6.998174 -49.361278 -11.821186 0.000000 0.000000 0.000000 0.000000 0.000000 0.000000 -11.766961 25.551221 -10.372580 6.645022 -20.345639 -0.735838 8.392000 -1.554740 -3.671173 0.000000 0.000000 0.000000 -11.853716 33.634436 -4.975204 -6.832304 -9.659176 -8.245396 28.866114 -24.573021 -14.331750 0.000000 0.000000 0.000000
-16.634816 79.849983 364.457719 10.810307 -12.660075 10.200001 -0.586202 0.119476 -8.631287 -0.519003 -0.105349 0.446114 0.614849 -1.283645 -10.415916 0.000000 0.000000 0.000000 -3.420588 18.684781 -0.776587 -89.785052 -7.914735 -25.383364 5.709745 -7.918201 4.683972 123.925428 -6.192007 65.988995 0.000000 0.000000 0.000000 0.000000 0.000000 0.000000 -21.382346 12.033611 6.093081 -82.166773 1.684564 32.948906 34.582041 14.362784 -21.483617 3.086229 -48.050091 -5.232413 0.000000 0.000000 0.000000 0.000000 0.000000 0.000000 -14.054395 26.943689 -5.910001 10.082220 -24.570753 0.085279 6.662759 2.373803 -6.394725 0.000000 0.000000 0.000000 -14.158137 32.014372 -0.649812 -6.873532 -10.470579 -8.594185 33.820340 -29.966364 -9.161570 0.000000 0.000000 0.000000
-17.250431 79.295256 361.837636 10.166694 -12.439928 8.494467 -0.524961 0.252097 -7.055772 -0.428022 -0.043380 0.411691 -0.022114 -1.408782 -9.922398 0.000000 0.000000 0.000000 -3.657220 20.651379 -0.953320 -82.193768 -10.124842 -25.911082 5.623583 -8.038458 4.279640 116.279012 -4.353651 66.724516 0.000000 0.000000 0.000000 0.000000 0.000000 0.000000 -22.266492 9.853487 5.972066 -85.658788 0.117929 36.284648 33.505869 -21.910599 -32.588235 2.039531 -24.212361 3.331502 0.000000 0.000000 0.000000 0.000000 0.000000 0.000000 -15.565548 29.252827 -3.605690 13.204167 -28.150339 1.217936 6.217659 4.459635 -10.111797 0.000000 0.000000 0.000000 -14.284605 30.186697 0.600965 -6.759205 -11.685125 -8.666104 36.321417 -32.011428 -5.688845 0.000000 0.000000 0.000000
-17.764186 78.836913 359.680255 9.715316 -12.136587 7.970331 -0.360652 0.263475 -6.637071 -0.344764 -0.057572 0.397854 -1.175823 -2.011091 -9.665415 0.000000 0.000000 0.000000 -3.828154 21.825153 -1.063907 -73.794175 -12.487203 -24.874903 5.459900 -8.127782 3.892565 107.620618 -2.400068 67.866988 0.000000 0.000000 0.000000 0.000000 0.000000 0.000000 -24.410332 7.775915 6.299546 -85.628580 -2.687043 36.519105 45.654680 -35.615317 -31.078915 -7.150710 -11.791683 7.271234 0.000000 0.000000 0.000000 0.000000 0.000000 0.000000 -16.701163 31.917936 -2.468724 15.729142 -30.767837 2.428120 8.196889 2.719696 -15.061424 0.000000 0.000000 0.000000 -13.387739 28.735537 0.359828 -7.421176 -13.279430 -9.029371 33.173615 -26.415747 -6.254058 0.000000 0.000000 0.000000
-18.538820 78.576790 357.325858 9.339191 -11.965540 7.385775 -0.397097 0.148310 -6.109135 -0.312229 -0.072676 0.380401 -2.057965 -1.191853 -8.892654 0.000000 0.000000 0.000000 -4.022882 22.878138 -1.098196 -65.541360 -14.559669 -23.152145 5.250616 -8.161988 3.576778 99.527898 -0.753017 69.306603 0.000000 0.000000 0.000000 0.000000 0.000000 0.000000 -25.436508 6.711327 6.510924 -86.073350 -3.351545 37.913174 65.657500 -49.041135 -21.309134 -18.431771 -9.880500 9.602502 0.000000 0.000000 0.000000 0.000000 0.000000 0.000000 -16.999124 33.985667 -1.545403 15.895213 -30.806553 2.949558 9.601285 1.248192 -18.845981 0.000000 0.000000 0.000000 -12.023977 26.611284 -0.221103 -8.749997 -13.008090 -8.836832 28.269740 -17.737229 -10.276790 0.000000 0.000000 0.000000
-19.328441 78.514495 355.134792 9.105295 -11.877740 6.312127 -0.395764 0.159754 -5.076601 -0.344533 0.031052 0.364012 -2.595446 -1.198947 -8.560205 0.000000 0.000000 0.000000 -4.517289 23.394678 -1.051300 -58.500681 -16.016631 -21.277612 5.054398 -8.156977 3.342000 93.045033 0.399978 70.737493 0.000000 0.000000 0.000000 0.000000 0.000000 0.000000 -25.315762 6.196338 6.357069 -86.684229 -4.368427 37.802300 83.601861 -46.916754 -10.364269 -24.788918 -20.368477 8.073557 0.000000 0.000000 0.000000 0.000000 0.000000 0.000000 -16.934840 35.053869 -0.382149 13.708443 -28.205756 2.589740 10.824238 0.196413 -21.535902 0.000000 0.000000 0.000000 -11.015214 24.073248 -0.296182 -9.773649 -11.478323 -8.036363 25.072014 -11.622892 -12.841294 0.000000 0.000000 0.000000
-19.849465 78.625944 353.410591 9.174845 -11.769199 6.442077 -0.403791 0.088104 -5.200236 -0.416807 0.149293 0.361035 -2.730396 -0.685714 -8.177675 0.000000 0.000000 0.000000 -5.064132 24.469338 -1.071884 -54.740009 -17.184537 -20.774759 4.937891 -8.134826 3.220685 89.603984 0.947634 71.748105 0.000000 0.000000 0.000000 0.000000 0.000000 0.000000 -24.948270 6.277221 6.226544 -87.980450 -4.790233 37.852570 95.209557 -46.633352 -3.221753 -29.132863 -26.349779 7.792144 0.000000 0.000000 0.000000 0.000000 0.000000 0.000000 -16.181326 36.269991 -0.657782 10.368504 -24.568577 1.834406 12.574899 -1.741453 -22.937113 0.000000 0.000000 0.000000 -10.769355 21.457007 -1.270760 -9.746505 -9.461656 -6.935488 23.199229 -8.147002 -13.620540 0.000000 0.000000 0.000000
-20.813680 78.972194 351.193604 8.768128 -11.525971 7.962246 -0.383957 0.053336 -6.793677 -0.454624 0.217940 0.341094 -0.900898 -0.227549 -8.219356 0.000000 0.000000 0.000000 -4.829343 23.827298 -1.024183 -54.966978 -16.963458 -20.661355 4.935951 -8.096845 3.249468 90.128568 0.911980 71.754997 0.000000 0.000000 0.000000 0.000000 0.000000 0.000000 -23.216681 6.326247 5.630736 -89.391462 -5.968969 36.854235 101.243469 -49.940014 0.579795 -31.427083 -24.708972 9.709796 0.000000 0.000000 0.000000 0.000000 0.000000 0.000000 -12.527284 35.937062 -3.475494 5.721504 -19.814654 0.695292 12.456677 -1.526872 -21.418453 0.000000 0.000000 0.000000 -9.431568 19.035822 -3.824536 -9.663531 -8.045709 -5.948157 22.881351 -7.002370 -15.752406 0.000000 0.000000 0.000000
-21.798089 79.438090 349.266418 8.241938 -11.228128 10.132276 -0.374049 0.061098 -9.056837 -0.473945 0.245655 0.317697 2.099087 0.442167 -8.440179 0.000000 0.000000 0.000000 -4.179504 21.570388 -0.889677 -57.413964 -15.378248 -20.151999 5.024898 -8.125711 3.339252 92.940033 0.446928 71.202740 0.000000 0.000000 0.000000 0.000000 0.000000 0.000000 -20.106784 6.342081 4.456581 -90.936348 -7.281161 35.490938 101.318262 -55.187300 1.279614 -32.529958 -20.339034 12.518039 0.000000 0.000000 0.000000 0.000000 0.000000 0.000000 -8.424001 35.481250 -7.052615 1.341108 -16.107673 -0.331562 12.485664 1.206729 -21.528237 0.000000 0.000000 0.000000 -8.366998 17.791038 -6.546360 -8.497906 -8.100966 -5.414396 24.350829 -11.115650 -14.578153 0.000000 0.000000 0.000000
